<?xml version="1.0" encoding="utf-8"?>
<!-- Generator: Adobe Illustrator 21.0.0, SVG Export Plug-In . SVG Version: 6.00 Build 0)  -->
<svg version="1.1" xmlns="http://www.w3.org/2000/svg" xmlns:xlink="http://www.w3.org/1999/xlink" x="0px" y="0px"
	 viewBox="0 0 32 32" style="enable-background:new 0 0 32 32;" xml:space="preserve">
<style type="text/css">
	.st0{fill:#FFFFFF;}
	.st1{fill:#F79822;}
	.st2{fill:#484849;}
	.st3{fill:#494A4C;}
	.st4{fill:#C1BFBE;}
	.st5{fill:#231F20;}
</style>
<g id="Layer_2">
	<rect class="st0" width="32" height="32"/>
</g>
<g id="Layer_1">
	<g>
		<g>
			<g>
				<path class="st1" d="M31.2,10.5c-3.2-2.1-5.8-2.5-7.7-2.1c-0.5,0.1-1,0.2-1.4,0.4c0,0-0.1,0-0.1,0c-2.3,1-3.7,3.2-4.2,4.4
					c0,0,0,0.1,0,0.1c-0.1,0.3-0.2,0.5-0.3,0.6c0,0,0,0,0,0c-1.7,3.8-2.1,8.6-2.1,8.6C9.3,20,0.2,23.2,0.2,23.2
					C2,16.7,5.6,12,5.7,11.9C2.2,18,2,21.9,2,21.9c9.8-2.2,12.5-0.5,12.5-0.5c0.1-1.5,0.3-2.9,0.6-4.1c0.2-0.9,0.5-1.8,0.9-2.8
					c0,0,0,0,0,0c0,0,0,0,0,0c0,0,0,0,0,0c0.1-0.4,2.6-7.2,8.8-7l0,0C28.5,7.6,31.1,10.4,31.2,10.5z"/>
				<path class="st1" d="M31.3,10.4c-0.1-0.1-2.3-2.4-5.4-3c-0.1,0-0.1,0-0.2,0c0,0,0,0,0,0c-0.3,0-0.7-0.1-0.7-0.1l-0.1,0
					c-6.2-0.1-8.7,6.6-8.9,7.1l0,0v0c-0.4,0.9-0.7,1.8-0.9,2.8c-0.3,1.2-0.5,2.6-0.6,3.9c-0.4-0.2-1.6-0.6-3.9-0.6
					c-2.3,0-5.1,0.4-8.4,1.1c0.1-0.8,0.7-4.6,3.7-9.8l-0.2-0.1C5.5,12,1.8,16.6,0.1,23.2L0,23.4l0.2-0.1c0,0,4.7-1.7,9.6-1.7
					c2.1,0,4,0.3,5.5,1l0.2,0.1l0-0.2c0,0,0.5-4.8,2.1-8.6c0,0,0,0,0,0c0,0,0,0,0,0c0-0.1,0.1-0.3,0.2-0.5c0,0,0,0,0-0.1l0,0
					c0,0,0,0,0,0c0.6-1.2,2-3.4,4.2-4.3c0,0,0,0,0,0l0,0c0,0,0,0,0,0c0.4-0.2,0.9-0.3,1.3-0.4c0,0,0,0,0,0h0
					c0.4-0.1,0.8-0.1,1.2-0.1c1.9,0,4.1,0.7,6.4,2.2l0.8,0.5L31.3,10.4z M23,8.4c-0.1,0-0.2,0.1-0.4,0.1c-0.2,0.1-0.3,0.1-0.5,0.2v0
					h0l0,0c0,0,0,0,0,0c-2.3,1-3.7,3.2-4.3,4.4c0,0,0,0,0,0.1l0,0c-0.1,0.1-0.1,0.2-0.2,0.3c0,0,0,0.1,0,0.1c0,0,0,0.1,0,0.1
					c0,0,0,0,0,0c0,0,0,0,0,0c0,0,0,0,0,0c-1.5,3.4-2,7.6-2.1,8.5c-1.5-0.6-3.4-0.9-5.5-0.9c-4.2,0-8.4,1.3-9.4,1.6
					c1.1-3.9,2.8-7.1,4-9c-2.4,4.8-2.6,7.9-2.6,7.9l0,0.2l0.2,0c3.3-0.7,6.2-1.1,8.5-1.1c2.9,0,4,0.6,4,0.6l0.2,0.1l0-0.2
					c0.1-1.4,0.3-2.8,0.6-4.1c0.2-1,0.5-1.9,0.9-2.8l0,0v0c0.1-0.3,2.5-6.9,8.5-7l0.2,0c2.4,0,4.3,1.2,5.4,2.1
					c-1.9-1-3.7-1.6-5.4-1.6c-0.4,0-0.9,0-1.3,0.1C23.3,8.3,23.2,8.3,23,8.4z"/>
			</g>
			<g>
				<path class="st1" d="M17.8,13.3c-0.1,0.2-0.2,0.4-0.3,0.6C17.6,13.8,17.6,13.6,17.8,13.3z"/>
				<path class="st1" d="M17.6,13.9l-0.2-0.1c0.1-0.1,0.1-0.3,0.3-0.6l0.2,0.1C17.8,13.5,17.8,13.7,17.6,13.9z"/>
			</g>
			<g>
				<path class="st1" d="M23.5,8.4c-0.5,0.1-1,0.2-1.4,0.4C22.6,8.6,23,8.5,23.5,8.4z"/>
				<path class="st1" d="M22.2,8.9l-0.1-0.2c0.5-0.2,0.9-0.3,1.4-0.4l0,0.3C23.1,8.6,22.6,8.7,22.2,8.9z"/>
			</g>
		</g>
		<g>
			<g>
				<path class="st1" d="M7.3,18c-0.1,0.2-0.1,0.3-0.1,0.3c0,0,0,0,0,0c0.1,0.2,0.2,0.4,0.4-0.1c0.7-1.7,3.3-2.4,3.8-2.5
					C8.5,16.3,7.5,17.5,7.3,18z"/>
				<path class="st1" d="M11.5,15.7l0-0.1c0,0,0,0,0,0c-3,0.6-4,1.8-4.3,2.3c-0.1,0.2-0.1,0.4-0.1,0.4c0,0,0,0,0,0
					c0.1,0.2,0.2,0.3,0.3,0.3c0.2,0,0.3-0.2,0.4-0.4c0.7-1.7,3.2-2.3,3.7-2.5v0c0,0,0,0,0,0L11.5,15.7z M7.3,18.3L7.3,18.3
					c0,0,0-0.1,0-0.2c0.1-0.2,0.4-0.5,0.8-0.9c-0.3,0.3-0.5,0.6-0.7,1c0,0.1-0.1,0.2-0.1,0.2C7.4,18.4,7.4,18.3,7.3,18.3z"/>
			</g>
			<g>
				<path class="st1" d="M11.5,15.7c0,0,0.1,0,0.1,0C11.6,15.7,11.5,15.7,11.5,15.7z"/>
				<path class="st1" d="M11.5,15.8l-0.1-0.3c0.1,0,0.1,0,0.1,0l0.1,0.3L11.5,15.8z"/>
			</g>
		</g>
		<g>
			<g>
				<path class="st1" d="M9.5,18.1c-0.1,0.1,0,0.2,0,0.2c0,0,0,0,0,0c0.1,0.1,0.2,0.3,0.3-0.1c0.5-1.3,2.3-1.7,2.7-1.8
					C10.4,16.9,9.7,17.7,9.5,18.1z"/>
				<path class="st1" d="M12.5,16.3C12.5,16.3,12.5,16.3,12.5,16.3c-2.2,0.4-2.9,1.3-3.1,1.7c-0.1,0.2-0.1,0.3-0.1,0.3l0,0
					c0.1,0.2,0.2,0.2,0.3,0.2c0.2,0,0.2-0.2,0.3-0.3c0.5-1.2,2.3-1.7,2.6-1.7h0L12.5,16.3z M9.6,18.2L9.6,18.2c0,0,0-0.1,0-0.1
					c0-0.1,0.1-0.2,0.2-0.3C9.8,17.9,9.7,18.1,9.6,18.2C9.6,18.2,9.6,18.3,9.6,18.2C9.6,18.3,9.6,18.3,9.6,18.2z"/>
			</g>
			<g>
				<path class="st1" d="M12.5,16.4C12.5,16.4,12.6,16.4,12.5,16.4C12.6,16.4,12.6,16.4,12.5,16.4z"/>
				<path class="st1" d="M12.5,16.6l-0.1-0.3c0.1,0,0.1,0,0.1,0L12.5,16.6L12.5,16.6z"/>
			</g>
		</g>
		<g>
			<path class="st2" d="M5,22.1C5,22.1,4.9,22.1,5,22.1C4.9,22.1,5,22.1,5,22.1z"/>
		</g>
		<g>
			
				<ellipse transform="matrix(1.794340e-02 -0.9998 0.9998 1.794340e-02 -19.2003 28.7093)" class="st3" cx="5" cy="24.1" rx="1.3" ry="1.3"/>
		</g>
		<g>
			<path class="st4" d="M6.3,24.1c0-0.4-0.2-0.8-0.5-1c0,0,0,0,0,0L5,23.3l0.2,0.5L4.9,24c0,0-0.1,0.2,0.1,0.2l0.5-0.2l0.3,0.2
				l-0.2,0.5H5c0,0-0.3,0.1-0.1,0.5L5,25.4c0,0,0,0,0,0C5.7,25.4,6.3,24.8,6.3,24.1z"/>
		</g>
		<g>
			
				<ellipse transform="matrix(1.794340e-02 -0.9998 0.9998 1.794340e-02 -13.3379 34.6779)" class="st2" cx="11" cy="24.1" rx="1.3" ry="1.3"/>
		</g>
		<g>
			<path class="st4" d="M12.3,24.1c0-0.4-0.2-0.8-0.5-1c0,0,0,0,0,0L11,23.3l0.2,0.5L10.8,24c0,0-0.1,0.2,0.1,0.2l0.5-0.2l0.3,0.2
				l-0.2,0.5h-0.5c0,0-0.3,0.1-0.1,0.5l0.2,0.3c0,0,0,0,0,0C11.7,25.4,12.3,24.8,12.3,24.1z"/>
		</g>
		<g>
			<g>
				<path class="st5" d="M28.5,14.8c-0.1-0.3-0.4-0.6-0.8-0.9c-0.1-0.1-0.2-0.2-0.3-0.2l-6.9,0c-0.6,0-0.9,0.2-1,0.7L18.7,19
					c1.3,0.4,2.8,1.3,4.4,2.6l1.3-6.9l2.5,0c0.4,0,0.7,0.3,0.9,0.9C28,16.1,28,16.5,28,17c-0.1,0.4-0.3,0.8-0.6,1
					c-0.3,0.3-0.7,0.4-1.2,0.4c-0.5,0-0.9-0.2-1.3-0.6c0.4,0,0.8,0,1-0.1c0.4-0.1,0.6-0.3,0.7-0.7c0-0.2,0-0.4-0.1-0.6
					c-0.1-0.2-0.3-0.2-0.5-0.2c-0.2,0-0.5,0.1-0.7,0.4c-0.2,0.2-0.3,0.5-0.3,0.7c0,0.1,0,0.3,0,0.5c0.2,0.5,0.5,0.7,1.1,0.7
					c0.7,0,1.3-0.2,1.8-0.7c0.5-0.5,0.8-1.1,1-1.8C28.7,15.6,28.7,15.2,28.5,14.8z M19.9,18.2l0.7-3.5l2.9,0l-1.1,6L19.9,18.2z"/>
			</g>
			<g>
				<path class="st5" d="M28.7,14.7c-0.2-0.3-0.4-0.6-0.9-0.9c-0.2-0.1-0.3-0.2-0.4-0.2l-6.9,0c-0.8,0-1.1,0.4-1.2,0.8l-0.9,4.7
					l0.2,0.1c1.3,0.4,2.7,1.3,4.4,2.6l0.3,0.2l1.3-7l2.4,0c0.2,0,0.5,0.1,0.7,0.7c0.1,0.4,0.2,0.9,0.1,1.3c-0.1,0.4-0.3,0.7-0.6,0.9
					c-0.3,0.2-0.7,0.3-1.1,0.3c-0.3,0-0.5-0.1-0.8-0.2c0.2,0,0.3,0,0.5-0.1c0.6-0.2,0.8-0.5,0.8-0.8c0-0.3,0-0.5-0.2-0.7
					c-0.2-0.2-0.4-0.3-0.7-0.3c-0.3,0-0.6,0.2-0.8,0.5c-0.2,0.3-0.3,0.5-0.4,0.8c0,0.1,0,0.2,0,0.3c0,0.1,0,0.2,0,0.3
					c0.2,0.5,0.6,0.8,1.3,0.8c0.7,0,1.4-0.3,1.9-0.8c0.6-0.5,0.9-1.1,1-1.9C28.9,15.6,28.9,15.1,28.7,14.7z M23.2,14.9l-1,5.4
					l-2.1-2.1l0.6-3.2L23.2,14.9z M22.5,20.8l1.2-6.3l-3.3,0l-0.7,3.7l1.9,1.9c-0.9-0.6-1.8-1.1-2.6-1.4l0.8-4.4
					c0-0.2,0.2-0.5,0.8-0.5l6.9,0c0,0,0.1,0,0.2,0.1c0.4,0.3,0.6,0.5,0.7,0.8c0.1,0.3,0.2,0.7,0.1,1.1c-0.1,0.3-0.1,0.6-0.3,0.8
					c0.1-0.4,0-0.9-0.1-1.3c-0.2-0.8-0.7-1-1.1-1l-2.7,0L23,21.2C22.9,21.1,22.7,21,22.5,20.8z M25.8,16.5c0.2,0,0.3,0.1,0.4,0.2
					c0.1,0.1,0.1,0.2,0.1,0.4c0,0.2-0.1,0.4-0.5,0.5c-0.2,0-0.4,0.1-0.8,0.1c0-0.1,0-0.2,0-0.2c0-0.2,0.1-0.4,0.3-0.6
					C25.4,16.6,25.6,16.5,25.8,16.5z"/>
			</g>
		</g>
	</g>
</g>
</svg>
